<svg width="30" height="30" viewBox="0 0 29 30" fill="none" xmlns="http://www.w3.org/2000/svg">
<path d="M21.1663 19.9998C17.483 22.2215 11.513 22.2215 7.83301 19.9998M26.1668 9.51612L17.2785 2.60279C16.4984 1.99597 15.5384 1.6665 14.5501 1.6665C13.5619 1.6665 12.6018 1.99597 11.8218 2.60279L2.9318 9.51612C2.39754 9.93159 1.96529 10.4637 1.66806 11.0717C1.37083 11.6797 1.21648 12.3477 1.2168 13.0245V25.0245C1.2168 25.9085 1.56799 26.7564 2.19311 27.3815C2.81823 28.0066 3.66608 28.3578 4.55013 28.3578H24.5501C25.4342 28.3578 26.282 28.0066 26.9072 27.3815C27.5323 26.7564 27.8835 25.9085 27.8835 25.0245V13.0245C27.8835 11.6528 27.2501 10.3578 26.1668 9.51612Z" stroke="black" stroke-width="2" stroke-linecap="round" stroke-linejoin="round"/>
</svg>
