<svg width="30" height="30" viewBox="0 0 30 30" fill="none" xmlns="http://www.w3.org/2000/svg">
<path d="M1.66699 4.99984C1.66699 4.11578 2.01818 3.26794 2.6433 2.64281C3.26842 2.01769 4.11627 1.6665 5.00033 1.6665H8.33366C9.21771 1.6665 10.0656 2.01769 10.6907 2.64281C11.3158 3.26794 11.667 4.11578 11.667 4.99984V6.6665C11.667 7.55056 11.3158 8.3984 10.6907 9.02353C10.0656 9.64865 9.21771 9.99984 8.33366 9.99984H5.00033C4.11627 9.99984 3.26842 9.64865 2.6433 9.02353C2.01818 8.3984 1.66699 7.55056 1.66699 6.6665V4.99984Z" stroke="black" stroke-width="2" stroke-linecap="round" stroke-linejoin="round"/>
<path d="M1.66699 19.9998C1.66699 19.1158 2.01818 18.2679 2.6433 17.6428C3.26842 17.0177 4.11627 16.6665 5.00033 16.6665H8.33366C9.21771 16.6665 10.0656 17.0177 10.6907 17.6428C11.3158 18.2679 11.667 19.1158 11.667 19.9998V24.9998C11.667 25.8839 11.3158 26.7317 10.6907 27.3569C10.0656 27.982 9.21771 28.3332 8.33366 28.3332H5.00033C4.11627 28.3332 3.26842 27.982 2.6433 27.3569C2.01818 26.7317 1.66699 25.8839 1.66699 24.9998V19.9998Z" stroke="black" stroke-width="2" stroke-linecap="round" stroke-linejoin="round"/>
<path d="M18.3337 4.99984C18.3337 4.11578 18.6848 3.26794 19.31 2.64281C19.9351 2.01769 20.7829 1.6665 21.667 1.6665H25.0003C25.8844 1.6665 26.7322 2.01769 27.3573 2.64281C27.9825 3.26794 28.3337 4.11578 28.3337 4.99984V9.99984C28.3337 10.8839 27.9825 11.7317 27.3573 12.3569C26.7322 12.982 25.8844 13.3332 25.0003 13.3332H21.667C20.7829 13.3332 19.9351 12.982 19.31 12.3569C18.6848 11.7317 18.3337 10.8839 18.3337 9.99984V4.99984Z" stroke="black" stroke-width="2" stroke-linecap="round" stroke-linejoin="round"/>
<path d="M18.3337 23.3332C18.3337 22.4491 18.6848 21.6013 19.31 20.9761C19.9351 20.351 20.7829 19.9998 21.667 19.9998H25.0003C25.8844 19.9998 26.7322 20.351 27.3573 20.9761C27.9825 21.6013 28.3337 22.4491 28.3337 23.3332V24.9998C28.3337 25.8839 27.9825 26.7317 27.3573 27.3569C26.7322 27.982 25.8844 28.3332 25.0003 28.3332H21.667C20.7829 28.3332 19.9351 27.982 19.31 27.3569C18.6848 26.7317 18.3337 25.8839 18.3337 24.9998V23.3332Z" stroke="black" stroke-width="2" stroke-linecap="round" stroke-linejoin="round"/>
</svg>
