<svg width="26" height="30" viewBox="0 0 26 34" fill="none" xmlns="http://www.w3.org/2000/svg">
<path d="M9.66634 24.6668V33.0002M16.333 24.6668V33.0002M16.333 13.0002L19.6663 24.6668H6.33301L9.66634 13.0002M16.333 13.0002H9.66634M16.333 13.0002C19.1113 13.0002 21.888 14.1118 24.6663 16.3335M9.66634 13.0002C6.88801 13.0002 4.11134 14.1118 1.33301 16.3335M9.66634 4.66683C9.66634 5.55088 10.0175 6.39873 10.6427 7.02385C11.2678 7.64897 12.1156 8.00016 12.9997 8.00016C13.8837 8.00016 14.7316 7.64897 15.3567 7.02385C15.9818 6.39873 16.333 5.55088 16.333 4.66683C16.333 3.78277 15.9818 2.93493 15.3567 2.30981C14.7316 1.68469 13.8837 1.3335 12.9997 1.3335C12.1156 1.3335 11.2678 1.68469 10.6427 2.30981C10.0175 2.93493 9.66634 3.78277 9.66634 4.66683Z" stroke="black" stroke-width="2" stroke-linecap="round" stroke-linejoin="round"/>
</svg>