<?xml version="1.0" encoding="UTF-8"?>
<svg version="1.1" viewBox="0 0 2944 2000" width="1280" height="1280" xmlns="http://www.w3.org/2000/svg">
<path transform="translate(1176,54)" d="m0 0 4 1 1 4-1 58 1 86 1 535 1 126v317l-2 15-6 12-8 12-11 14-9 10-7 8-12 13-11 14-11 13-9 11-13 15-12 14-22 26-14 19-7 9-2 3h-2l-1-89-1-661-2-147v-138l1-128 2-9 6-9 75-75 1-2h2l2-4 17-17 7-8 9-9 1-2h2l2-4 13-14 1-2h2l2-4 8-12z" fill="#FEFEFE"/>
<path transform="translate(1835,583)" d="m0 0 5 1 11 9 10 12 12 19 9 15 10 19 11 25 9 27 5 25 2 15 1 16v21l-2 28-4 24-8 23-8 15-15 22-8 10-6 7h-2l-2 4-14 14-12 11-11 9-13 10-6 4-13 10-16 12-17 12-12 8-23 16-15 10-25 16-20 13-25 16-17 11-11 7-12 8-18 13-20 14-16 11-16 12-12 10-13 10-16 13-11 10-8 7-10 9-12 11-17 17-7 8-10 11-7 8-10 14-14 21-12 21-14 29-6 11-4 4-3-4-5-19-8-36-4-25-3-31v-24l2-25 5-29 6-23 9-25 8-18 8-17 13-21 21-31 12-15 7-8 7-7 1-2h2l2-4 10-9 2-3h2l2-4 8-7 8-8 14-11 13-10 20-14 18-11 10-7 48-28 26-15 14-8 24-15 19-12 19-13 19-14 28-22 12-11h2v-2l4-4h2v-2h2l2-4 10-11 11-14 10-15 6-10 8-16 8-17 8-19 6-24 4-26 1-20 1-10 3-7z" fill="#FEFEFE"/>
<path transform="translate(1895,70)" d="m0 0 4 4 4 11 12 52 4 28v49l-3 33-5 23-8 26-5 15-13 27-7 14-10 16-9 14-12 17-11 13-9 10-11 12-14 14-8 7-10 9-14 11-16 12-11 8-21 13-20 12-23 13-13 8-16 9-21 12-17 10-17 11-36 24-14 10-14 12-8 7-13 12-17 17-7 8-2 3h-2l-2 4-10 12-12 18-13 25-10 25-7 22-3 12-3 27-3 36-1 2-4-2-9-10-12-14-11-14-12-17-11-17-12-22-8-18-8-24-3-15-2-24v-23l3-23 6-25 8-20 9-17 12-19 13-18 11-13 9-10 17-17 13-10 9-8 14-11 17-13 19-14 16-12 34-24 14-10 42-28 43-29 18-12 19-13 18-13 19-14 13-10 12-9 14-11 13-11 11-10 8-7 15-14 13-12 9-9 1-2h2l2-4 8-9 11-14 8-11 7-11 9-15 12-23 10-21 6-12z" fill="#FEFEFE"/>
<path transform="translate(1646,1591)" d="m0 0h150l43 2 20 2 13 4 12 8 10 9 8 10 10 19 5 16 3 19v25l-3 15-9 19-10 14-8 8-10 7-8 4-12 4-4 1 2 5 19 19 8 10 11 15 12 19 12 22 13 28 6 15 6 13 11 1v2l-2 1-115 1-7-2-4-4-23-45-13-26-8-17-12-20-9-10-8-6-8-4-11-2v67l1 65-3 2-5 1h-88l-2-7-1-20v-301l2-7zm94 70-3 1-1 2v66l3 1h30l20-4 12-4 10-7 7-7 4-9v-11l-3-10-6-8-11-6-15-3-11-1z" fill="#FEFEFE"/>
<path transform="translate(1958,1591)" d="m0 0h253l15 1 2 2v20l-1 31-1 16-3 2-161 1-1 49h51l98 1 5 1 1 3v62l-2 2-30 1-122 1-1 64 154 1 13 1 3 3 1 28v42l-3 2-204 2h-60l-3-3-2-12-2-32-1-288z" fill="#FEFEFE"/>
<path transform="translate(1134,1575)" d="m0 0h39l18 3 19 5 15 6 11 7 10 9 8 9 10 15 9 20 4 15 2 12v8l-4 2-37 3-30 2-22-1-5-9-3-15-6-10-10-5-12-2h-18l-6 3-7 8-1 3v10l4 8 9 7 14 6 39 12 29 9 19 9 15 10 13 12 9 10 9 15 6 16 4 16 1 8v20l-2 15-4 14-7 17-9 14-8 10-6 7-8 7-12 9-14 7-17 5-29 6-19 2h-18l-18-2-25-6-15-6-11-7-11-9-12-12-9-13-10-19-6-18-5-22v-10l4-4 7-2 8-1 35-1 16-1 8-2 9 3 6 10 8 18 7 14 7 7 10 5 12 2h13l14-7 7-6 5-9 1-5-1-13-6-12-8-8-15-6-24-7-29-10-14-6-19-11-11-8-11-9-7-8-8-11-7-14-5-19-1-6v-25l3-16 6-16 4-8 8-11 11-12 10-8 18-10 17-6 25-5z" fill="#fff"/>
<path transform="translate(567,1591)" d="m0 0h245l7 1 1 1v20l-1 42-2 7-2 1-151 1-1 49h139l6 2v65l-2 2-4 1h-138v41l-1 24 152 1 7 2 1 1 1 32v40l-2 2-98 1h-153l-4-3-1-12v-320z" fill="#FEFEFE"/>
<path transform="translate(2280,1591)" d="m0 0h207l39 1 5 2v47l-1 22-7 1-147-1-1 50h75l66 1 3 1 1 3v59l-1 4-3 1-46 1h-94v26l-1 40h116l40 1 5 2 1 69-1 2-7 2-174 1h-71l-4-3-2-12v-283l1-36z" fill="#FEFEFE"/>
<path transform="translate(362,1591)" d="m0 0h38l25 4 16 5 16 8 11 7 11 9 9 10 10 14 11 23 6 20v8l-6 4-50 12-15 4-7-1-9-12-9-13-10-10-10-5-8-2h-18l-9 2-9 5-10 10-8 13-4 11-4 20-1 11v41l2 17 5 20 6 14 9 10 11 5 11 3 14 1 13-4 10-6 10-9 8-10 5-12 3-16 3-5 8 1 30 9 39 13 4 4 1 7-6 22-9 21-8 15-10 14-12 12-8 7-15 8-18 6-24 5-14 2-26 1-17-1-17-3-17-5-18-10-13-11-16-16-12-17-11-20-10-25-6-23-3-22v-48l3-22 7-28 6-16 8-16 7-12 10-13 9-10 14-11 15-10 16-7 21-5z" fill="#fff"/>
<path transform="translate(2570,1591)" d="m0 0h202l61 1 18 1 4 2v76l-4 3-4 1h-89v249l-2 1-10 1-53 1h-30l-2-4-1-18v-229l-84-1-8-1-1-1-1-12 1-67z" fill="#fff"/>
<path transform="translate(1318,1591)" d="m0 0h254l17 1 2 1 1 3v76l-4 3-88 1v247l-2 2-4 1-30 1h-52l-2-3-1-5-1-31v-214l-64 3h-23l-2-3-1-24-1-58z" fill="#fff"/>
<path transform="translate(90,1591)" d="m0 0h29l60 1 4 2 1 2v328l-5 3h-89l-2-2-1-6-1-19v-272l1-34z" fill="#fff"/>
<path transform="translate(432,1812)" d="m0 0" fill="#fff"/>
<path transform="translate(1960,1921)" d="m0 0" fill="#fff"/>
</svg>
